{"title":"The Don Is Dead[1973]Anthony Quinn.DvdRip.h264.Eng.AC3-M8 Mkv","uid":9878461,"size":1418109142,"categoryP":"video","categoryS":"movies","magnet":"?xt=urn:btih:f07ce56398a7bc1d77fc981207360dcb5d6db0e9&amp;dn=The+Don+Is+Dead%5B1973%5DAnthony+Quinn.DvdRip.h264.Eng.AC3-M8+Mkv&amp;tr=udp%3A%2F%2Ftracker.openbittorrent.com%3A80&amp;tr=udp%3A%2F%2Fopen.demonii.com%3A1337&amp;tr=udp%3A%2F%2Ftracker.coppersurfer.tk%3A6969&amp;tr=udp%3A%2F%2Fexodus.desync.com%3A6969","seeders":4,"leechers":2,"uploader":"captainwest","files":-1,"time":1396505626,"description":"General\nUnique ID                                : 226357904409300006622505509932298444312 (0xAA4AF256052076AA277D75CA29CC9E18)\nComplete name                            : The Don Is Dead[1973]Anthony Quinn.DvdRip.h264.Eng.AC3-M8 MkvThe Don Is Dead[1973]Anthony Quinn.DvdRip.h264.Eng.AC3-M8.mkv\nFormat                                   : Matroska\nFormat version                           : Version 2\nFile size                                : 1.32 GiB\nDuration                                 : 1h 48mn\nOverall bit rate                         : 1 729 Kbps\nWriting application                      : HandBrake 0.9.9\nWriting library                          : libmkv 0.6.5\n\nVideo\nID                                       : 1\nFormat                                   : AVC\nFormat/Info                              : Advanced Video Codec\nFormat profile                           : &lt;a class=&quot;__cf_email__&quot; href=&quot;/cdn-cgi/l/email-protection&quot; data-cfemail=&quot;440c2d232c0408776a75&quot;&gt;[email&amp;#160;protected]&lt;/a&gt;&lt;script cf-hash='f9e31' type=&quot;text/javascript&quot;&gt;\n/* &lt;![CDATA[ */!function(){try{var t=&quot;currentScript&quot;in document?document.currentScript:function(){for(var t=document.getElementsByTagName(&quot;script&quot;),e=t.length;e--;)if(t[e].getAttribute(&quot;cf-hash&quot;))return t[e]}();if(t&amp;&amp;t.previousSibling){var e,r,n,i,c=t.previousSibling,a=c.getAttribute(&quot;data-cfemail&quot;);if(a){for(e=&quot;&quot;,r=parseInt(a.substr(0,2),16),n=2;a.length-n;n+=2)i=parseInt(a.substr(n,2),16)^r,e+=String.fromCharCode(i);e=document.createTextNode(e),c.parentNode.replaceChild(e,c)}}}catch(u){}}();/* ]]&gt; */&lt;/script&gt;\nFormat settings, CABAC                   : Yes\nFormat settings, ReFrames                : 4 frames\nCodec ID                                 : V_MPEG4/ISO/AVC\nDuration                                 : 1h 48mn\nBit rate                                 : 1 500 Kbps\nWidth                                    : 720 pixels\nHeight                                   : 578 pixels\nDisplay aspect ratio                     : 16:9\nOriginal display aspect ratio            : 16:9\nFrame rate mode                          : Constant\nFrame rate                               : 25.000 fps\nColor space                              : YUV\nChroma subsampling                       : 4:2:0\nBit depth                                : 8 bits\nScan type                                : Progressive\nBits/(Pixel*Frame)                       : 0.144\nStream size                              : 1.12 GiB (85%)\nWriting library                          : x264 core 130 r2273 b3065e6\nEncoding settings                        : cabac=1 / ref=3 / deblock=1:0:0 / analyse=0x3:0x113 / me=umh / subme=7 / psy=1 / psy_rd=1.00:0.00 / mixed_ref=1 / me_range=16 / chroma_me=1 / trellis=1 / 8x8dct=1 / cqm=0 / deadzone=21,11 / fast_pskip=1 / chroma_qp_offset=-2 / threads=3 / lookahead_threads=1 / sliced_threads=0 / nr=0 / decimate=1 / interlaced=0 / bluray_compat=0 / constrained_intra=0 / bframes=3 / b_pyramid=2 / b_adapt=2 / b_bias=0 / direct=1 / weightb=1 / open_gop=0 / weightp=2 / keyint=250 / keyint_min=25 / scenecut=40 / intra_refresh=0 / rc_lookahead=40 / rc=2pass / mbtree=1 / bitrate=1500 / ratetol=1.0 / qcomp=0.60 / qpmin=0 / qpmax=69 / qpstep=4 / cplxblur=20.0 / qblur=0.5 / ip_ratio=1.40 / aq=1:1.00\nLanguage                                 : English\nDefault                                  : Yes\nForced                                   : No\nColor primaries                          : BT.601 PAL\nTransfer characteristics                 : BT.709\nMatrix coefficients                      : BT.601\n\nAudio\nID                                       : 2\nFormat                                   : AC-3\nFormat/Info                              : Audio Coding 3\nMode extension                           : CM (complete main)\nFormat settings, Endianness              : Big\nCodec ID                                 : A_AC3\nDuration                                 : 1h 48mn\nBit rate mode                            : Constant\nBit rate                                 : 224 Kbps\nChannel count                            : 2 channels\nChannel positions                        : Front: L R\nSampling rate                            : 48.0 KHz\nBit depth                                : 16 bits\nCompression mode                         : Lossy\nStream size                              : 175 MiB (13%)\nLanguage                                 : English\nDefault                                  : Yes\nForced                                   : No\n\nMenu\n00:00:00.000                             : Chapter 1\n00:08:16.320                             : Chapter 2\n00:18:41.120                             : Chapter 3\n00:25:41.800                             : Chapter 4\n00:30:30.920                             : Chapter 5\n00:35:41.880                             : Chapter 6\n00:41:48.720                             : Chapter 7\n00:50:20.160                             : Chapter 8\n00:56:21.040                             : Chapter 9\n01:01:05.480                             : Chapter 10\n01:06:35.680                             : Chapter 11\n01:16:37.320                             : Chapter 12\n01:27:20.560                             : Chapter 13\n01:36:12.520                             : Chapter 14\n01:41:02.680                             : Chapter 15\n01:46:13.640                             : Chapter 16\n\nThe Don Is Dead is a 1973 crime drama film directed by Richard Fleischer. \nIt stars Anthony Quinn.\n\nSpoiler Warning if you read beyond this point .......... ??\n\nFrank is the ambitious son of an organized-crime boss. \nHe plans a heroin deal with the help of brothers Tony and Vince, but a snitch tips off the cops.\nAfter the death of his father, a mob war breaks out between two rival families. \nOne is run by Don Angelo, but he does not get the support of the brothers, Tony and Vince, and must seek power through other means. \nHe begins a romance with Frank's young and beautiful fiancee, Ruby, which sends Frank into a self-destructive rage.\n\nCast\n\nAnthony Quinn as       Don Angelo\n\nAngel Tompkins as      Ruby\n\nAl Lettieri as         Vince\n\nRobert Forster as      Frank\n\nLouis Zorich as        Mitch\n\nIna Balin as           Nella\n\nFrederic Forrest as    Tony\n\nCharles Cioffi as      Orlando\n\n\n\nInformation Links\n\n\nThe Don Is Dead Wikipedia Link  :http://en.wikipedia.org/wiki/The_Don_Is_Dead \n\nThe Don Is Dead IMDB Link       :http://www.imdb.com/title/tt0069989/?ref_=fn_al_tt_1 \n\nAnthony Quinn at IMDB Link      :http://www.imdb.com/name/nm0000063/?ref_=tt_ov_st\n\n\nAll The Best From Captainwest !!!\n","torrent":{"xt":"urn:btih:f07ce56398a7bc1d77fc981207360dcb5d6db0e9","amp;dn":"The+Don+Is+Dead%5B1973%5DAnthony+Quinn.DvdRip.h264.Eng.AC3-M8+Mkv","amp;tr":["udp%3A%2F%2Ftracker.openbittorrent.com%3A80","udp%3A%2F%2Fopen.demonii.com%3A1337","udp%3A%2F%2Ftracker.coppersurfer.tk%3A6969","udp%3A%2F%2Fexodus.desync.com%3A6969"],"infoHash":"f07ce56398a7bc1d77fc981207360dcb5d6db0e9","infoHashBuffer":{"type":"Buffer","data":[240,124,229,99,152,167,188,29,119,252,152,18,7,54,13,203,93,109,176,233]},"announce":[],"urlList":[]}}